<svg width="61" height="62" viewBox="0 0 61 62" fill="none" xmlns="http://www.w3.org/2000/svg">
<path d="M22.6667 24.5291H39.3333M22.6667 32.8624H35.1667M43.5 14.1124C45.1576 14.1124 46.7473 14.7709 47.9194 15.943C49.0915 17.1151 49.75 18.7048 49.75 20.3624V37.0291C49.75 38.6867 49.0915 40.2764 47.9194 41.4485C46.7473 42.6206 45.1576 43.2791 43.5 43.2791H33.0833L22.6667 49.5291V43.2791H18.5C16.8424 43.2791 15.2527 42.6206 14.0806 41.4485C12.9085 40.2764 12.25 38.6867 12.25 37.0291V20.3624C12.25 18.7048 12.9085 17.1151 14.0806 15.943C15.2527 14.7709 16.8424 14.1124 18.5 14.1124H43.5Z" stroke="black" stroke-width="4.16667" stroke-linecap="round" stroke-linejoin="round"/>
</svg>
