<svg width="61" height="62" viewBox="0 0 61 62" fill="none" xmlns="http://www.w3.org/2000/svg">
<path d="M26.2 37.9791L29 35.0791L24.7 30.7791L29 26.4791L26.2 23.5791L19 30.7791L26.2 37.9791ZM35.8 37.9791L43 30.7791L35.8 23.5791L33 26.4791L37.3 30.7791L33 35.0791L35.8 37.9791ZM17 48.7791C15.9 48.7791 14.9587 48.3877 14.176 47.6051C13.3933 46.8224 13.0013 45.8804 13 44.7791V16.7791C13 15.6791 13.392 14.7377 14.176 13.9551C14.96 13.1724 15.9013 12.7804 17 12.7791H25.4C25.8333 11.5791 26.5587 10.6124 27.576 9.87905C28.5933 9.14572 29.7347 8.77905 31 8.77905C32.2653 8.77905 33.4073 9.14572 34.426 9.87905C35.4447 10.6124 36.1693 11.5791 36.6 12.7791H45C46.1 12.7791 47.042 13.1711 47.826 13.9551C48.61 14.7391 49.0013 15.6804 49 16.7791V44.7791C49 45.8791 48.6087 46.8211 47.826 47.6051C47.0433 48.3891 46.1013 48.7804 45 48.7791H17ZM17 44.7791H45V16.7791H17V44.7791ZM31 15.2791C31.4333 15.2791 31.792 15.1371 32.076 14.8531C32.36 14.5691 32.5013 14.2111 32.5 13.7791C32.4987 13.3471 32.3567 12.9891 32.074 12.7051C31.7913 12.4211 31.4333 12.2791 31 12.2791C30.5667 12.2791 30.2087 12.4211 29.926 12.7051C29.6433 12.9891 29.5013 13.3471 29.5 13.7791C29.4987 14.2111 29.6407 14.5697 29.926 14.8551C30.2113 15.1404 30.5693 15.2817 31 15.2791Z" fill="black"/>
</svg>
