<svg width="61" height="62" viewBox="0 0 61 62" fill="none" xmlns="http://www.w3.org/2000/svg">
<g clip-path="url(#clip0_87_130)">
<path d="M17.7917 49.6123H43.2083M22.875 39.4457V49.6123M38.125 39.4457V49.6123M7.625 11.4873C7.625 10.8133 7.89278 10.1668 8.36944 9.69012C8.84609 9.21346 9.49257 8.94568 10.1667 8.94568H50.8333C51.5074 8.94568 52.1539 9.21346 52.6306 9.69012C53.1072 10.1668 53.375 10.8133 53.375 11.4873V36.904C53.375 37.5781 53.1072 38.2246 52.6306 38.7012C52.1539 39.1779 51.5074 39.4457 50.8333 39.4457H10.1667C9.49257 39.4457 8.84609 39.1779 8.36944 38.7012C7.89278 38.2246 7.625 37.5781 7.625 36.904V11.4873Z" stroke="black" stroke-width="3.2973" stroke-linecap="round" stroke-linejoin="round"/>
<path d="M20.3335 29.279L27.9585 21.654L33.0418 26.7373L40.6668 19.1123" stroke="black" stroke-width="3.2973" stroke-linecap="round" stroke-linejoin="round"/>
</g>
<defs>
<clipPath id="clip0_87_130">
<rect width="61" height="61" fill="white" transform="translate(0 0.390625)"/>
</clipPath>
</defs>
</svg>
